<svg width="690" height="200" viewBox="0 0 690 200" fill="none" xmlns="http://www.w3.org/2000/svg">
<path d="M287.64 27.55V37.78H267.29V104H254.75V37.78H234.29V27.55H287.64ZM336.75 104L319.15 73.42H309.58V104H297.04V27.55H323.44C329.307 27.55 334.257 28.5767 338.29 30.63C342.397 32.6833 345.44 35.4333 347.42 38.88C349.473 42.3267 350.5 46.1767 350.5 50.43C350.5 55.4167 349.033 59.9633 346.1 64.07C343.24 68.1033 338.803 70.8533 332.79 72.32L351.71 104H336.75ZM309.58 63.41H323.44C328.133 63.41 331.653 62.2367 334 59.89C336.42 57.5433 337.63 54.39 337.63 50.43C337.63 46.47 336.457 43.39 334.11 41.19C331.763 38.9167 328.207 37.78 323.44 37.78H309.58V63.41ZM375.782 27.55V104H363.242V27.55H375.782ZM451.756 104H439.216L401.486 46.91V104H388.946V27.44H401.486L439.216 84.42V27.44H451.756V104ZM499.793 104.77C492.68 104.77 486.116 103.12 480.103 99.82C474.163 96.4467 469.433 91.79 465.913 85.85C462.466 79.8367 460.743 73.09 460.743 65.61C460.743 58.13 462.466 51.42 465.913 45.48C469.433 39.54 474.163 34.92 480.103 31.62C486.116 28.2467 492.68 26.56 499.793 26.56C506.98 26.56 513.543 28.2467 519.483 31.62C525.496 34.92 530.226 39.54 533.673 45.48C537.12 51.42 538.843 58.13 538.843 65.61C538.843 73.09 537.12 79.8367 533.673 85.85C530.226 91.79 525.496 96.4467 519.483 99.82C513.543 103.12 506.98 104.77 499.793 104.77ZM499.793 93.88C504.853 93.88 509.363 92.7433 513.323 90.47C517.283 88.1233 520.363 84.8233 522.563 80.57C524.836 76.2433 525.973 71.2567 525.973 65.61C525.973 59.9633 524.836 55.0133 522.563 50.76C520.363 46.5067 517.283 43.2433 513.323 40.97C509.363 38.6967 504.853 37.56 499.793 37.56C494.733 37.56 490.223 38.6967 486.263 40.97C482.303 43.2433 479.186 46.5067 476.913 50.76C474.713 55.0133 473.613 59.9633 473.613 65.61C473.613 71.2567 474.713 76.2433 476.913 80.57C479.186 84.8233 482.303 88.1233 486.263 90.47C490.223 92.7433 494.733 93.88 499.793 93.88ZM613.773 27.55L585.063 104H570.543L541.723 27.55H555.143L577.803 91.13L600.573 27.55H613.773ZM667.05 88.38H635.04L629.54 104H616.45L643.84 27.44H658.36L685.75 104H672.55L667.05 88.38ZM663.53 78.15L651.1 42.62L638.56 78.15H663.53Z" fill="url(#paint0_linear_1_4)"/>
<path d="M275.6 129.264V174H271.12V129.264H275.6ZM332.273 174H327.793L303.025 136.368V174H298.545V129.264H303.025L327.793 166.832V129.264H332.273V174ZM379.412 129.264V132.976H359.7V149.68H376.34V153.392H359.7V174H355.22V129.264H379.412ZM419.678 174.448C415.54 174.448 411.785 173.488 408.414 171.568C405.044 169.605 402.377 166.896 400.414 163.44C398.494 159.941 397.534 155.995 397.534 151.6C397.534 147.205 398.494 143.28 400.414 139.824C402.377 136.325 405.044 133.616 408.414 131.696C411.785 129.733 415.54 128.752 419.678 128.752C423.86 128.752 427.636 129.733 431.006 131.696C434.377 133.616 437.022 136.325 438.942 139.824C440.862 143.28 441.822 147.205 441.822 151.6C441.822 155.995 440.862 159.941 438.942 163.44C437.022 166.896 434.377 169.605 431.006 171.568C427.636 173.488 423.86 174.448 419.678 174.448ZM419.678 170.544C423.006 170.544 425.993 169.776 428.638 168.24C431.284 166.704 433.374 164.507 434.91 161.648C436.446 158.747 437.214 155.397 437.214 151.6C437.214 147.803 436.446 144.475 434.91 141.616C433.374 138.757 431.284 136.56 428.638 135.024C425.993 133.488 423.006 132.72 419.678 132.72C416.35 132.72 413.364 133.488 410.718 135.024C408.073 136.56 405.982 138.757 404.446 141.616C402.91 144.475 402.142 147.803 402.142 151.6C402.142 155.397 402.91 158.747 404.446 161.648C405.982 164.507 408.073 166.704 410.718 168.24C413.364 169.776 416.35 170.544 419.678 170.544ZM488.996 129.264V132.976H476.58V174H472.1V132.976H459.62V129.264H488.996ZM513.35 132.912V149.616H530.31V153.328H513.35V170.288H532.23V174H508.87V129.2H532.23V132.912H513.35ZM551.809 151.6C551.809 147.205 552.769 143.28 554.689 139.824C556.609 136.325 559.233 133.616 562.561 131.696C565.889 129.733 569.601 128.752 573.697 128.752C578.689 128.752 582.956 129.947 586.497 132.336C590.081 134.683 592.684 138.011 594.305 142.32H589.057C587.777 139.291 585.815 136.923 583.169 135.216C580.567 133.509 577.409 132.656 573.697 132.656C570.412 132.656 567.447 133.424 564.801 134.96C562.199 136.496 560.151 138.715 558.657 141.616C557.164 144.475 556.417 147.803 556.417 151.6C556.417 155.397 557.164 158.725 558.657 161.584C560.151 164.443 562.199 166.64 564.801 168.176C567.447 169.712 570.412 170.48 573.697 170.48C577.409 170.48 580.567 169.648 583.169 167.984C585.815 166.277 587.777 163.931 589.057 160.944H594.305C592.684 165.211 590.081 168.517 586.497 170.864C582.913 173.211 578.647 174.384 573.697 174.384C569.601 174.384 565.889 173.424 562.561 171.504C559.233 169.541 556.609 166.832 554.689 163.376C552.769 159.92 551.809 155.995 551.809 151.6ZM649.249 129.264V174H644.769V153.072H620.513V174H616.033V129.264H620.513V149.36H644.769V129.264H649.249Z" fill="url(#paint1_linear_1_4)"/>
<circle cx="100" cy="100" r="97.5" stroke="url(#paint2_linear_1_4)" stroke-width="5"/>
<path d="M79.872 135.112C77.76 135.112 76.352 134.376 75.648 132.904C74.944 131.368 74.592 129.672 74.592 127.816C74.592 126.536 74.688 125.288 74.88 124.072C75.072 122.792 75.264 121.736 75.456 120.904C75.968 118.472 76.8 115.592 77.952 112.264C79.104 108.872 80.416 105.32 81.888 101.608C83.424 97.832 85.024 94.12 86.688 90.472C88.352 86.76 89.952 83.304 91.488 80.104C93.088 76.84 94.496 74.056 95.712 71.752C94.24 71.816 92.544 71.816 90.624 71.752C88.704 71.624 86.72 71.56 84.672 71.56C81.152 71.56 77.664 71.848 74.208 72.424C70.816 72.936 68.032 74.184 65.856 76.168C64.832 77.128 64.096 78.152 63.648 79.24C63.2 80.328 62.976 81.416 62.976 82.504C62.976 83.72 63.168 84.904 63.552 86.056C63.616 86.184 63.648 86.344 63.648 86.536C63.648 87.176 63.328 87.496 62.688 87.496C62.304 87.496 62.016 87.336 61.824 87.016C61.184 85.992 60.704 84.968 60.384 83.944C60.128 82.856 60 81.8 60 80.776C60 78.984 60.32 77.288 60.96 75.688C61.6 74.088 62.368 72.776 63.264 71.752C65.504 69.128 68.544 67.4 72.384 66.568C76.224 65.672 80.224 65.224 84.384 65.224C87.584 65.224 90.688 65.352 93.696 65.608C96.768 65.864 99.488 66.056 101.856 66.184C104.096 66.312 106.88 66.536 110.208 66.856C113.536 67.112 116.768 67.24 119.904 67.24C122.72 67.24 125.248 67.048 127.488 66.664C129.728 66.28 131.36 65.576 132.384 64.552C132.576 64.936 132.672 65.384 132.672 65.896C132.672 67.24 131.904 68.552 130.368 69.832C128.832 71.112 126.752 71.976 124.128 72.424C123.296 72.552 122.336 72.648 121.248 72.712C120.224 72.776 119.136 72.808 117.984 72.808C116.064 72.808 114.144 72.776 112.224 72.712C110.304 72.584 108.608 72.456 107.136 72.328C105.664 72.2 104.672 72.168 104.16 72.232C103.776 72.808 103.168 73.864 102.336 75.4C101.568 76.936 100.736 78.6 99.84 80.392C98.944 82.184 98.144 83.816 97.44 85.288C96.224 87.848 94.944 90.728 93.6 93.928C92.256 97.128 90.976 100.36 89.76 103.624C88.544 106.888 87.488 109.992 86.592 112.936C85.76 115.88 85.216 118.408 84.96 120.52C84.896 120.712 84.864 120.936 84.864 121.192C84.864 121.384 84.864 121.576 84.864 121.768C84.864 122.984 85.088 124.04 85.536 124.936C86.048 125.768 86.816 126.184 87.84 126.184C88.736 126.184 89.824 125.704 91.104 124.744C92.384 123.784 93.856 122.184 95.52 119.944C95.84 119.56 96.128 119.368 96.384 119.368C96.768 119.368 96.96 119.688 96.96 120.328C96.96 120.776 96.8 121.384 96.48 122.152C96.224 122.92 95.744 123.816 95.04 124.84C94.464 125.672 93.536 126.792 92.256 128.2C90.976 129.544 89.728 130.696 88.512 131.656C87.424 132.552 86.08 133.352 84.48 134.056C82.88 134.76 81.344 135.112 79.872 135.112ZM132.232 86.92C130.568 86.344 129.736 85.256 129.736 83.656C129.736 82.184 130.312 80.68 131.464 79.144C132.68 77.544 133.992 76.52 135.4 76.072C135.72 75.944 135.976 75.88 136.168 75.88C136.424 75.88 136.68 75.88 136.936 75.88C138.024 75.88 138.92 76.2 139.624 76.84C140.328 77.48 140.68 78.216 140.68 79.048C140.68 80.2 140.072 81.16 138.856 81.928C137.896 81.8 136.968 82.024 136.072 82.6C135.176 83.176 134.376 83.88 133.672 84.712C133.032 85.544 132.552 86.28 132.232 86.92ZM115.72 133.576C114.888 133.576 114.088 133.384 113.32 133C112.552 132.68 111.912 132.008 111.4 130.984C110.696 129.448 110.344 127.624 110.344 125.512C110.344 123.208 110.696 120.648 111.4 117.832C112.104 114.952 113.032 112.008 114.184 109C114.632 107.912 115.208 106.568 115.912 104.968C116.616 103.368 117.448 101.768 118.408 100.168C119.368 98.568 120.456 97.256 121.672 96.232C122.952 95.144 124.328 94.6 125.8 94.6C126.504 94.6 127.496 94.632 128.776 94.696C130.056 94.76 130.984 94.76 131.56 94.696C131.176 94.952 130.728 95.464 130.216 96.232C129.704 97 129.224 97.8 128.776 98.632C128.328 99.4 127.976 100.008 127.72 100.456C126.056 103.784 124.488 107.08 123.016 110.344C121.544 113.608 120.424 116.744 119.656 119.752C119.528 120.264 119.432 120.776 119.368 121.288C119.304 121.8 119.272 122.28 119.272 122.728C119.272 124.584 119.88 125.512 121.096 125.512C121.608 125.512 122.152 125.384 122.728 125.128C123.368 124.808 124.104 124.328 124.936 123.688C126.408 122.536 127.688 121.224 128.776 119.752C130.056 118.088 131.272 116.328 132.424 114.472C133.576 112.552 134.568 110.792 135.4 109.192C135.72 108.68 135.944 108.424 136.072 108.424C136.456 108.424 136.648 108.968 136.648 110.056C136.648 110.568 136.552 111.176 136.36 111.88C136.232 112.52 136.008 113.128 135.688 113.704C134.792 115.24 133.736 116.936 132.52 118.792C131.304 120.648 130.056 122.44 128.776 124.168C127.88 125.384 126.696 126.728 125.224 128.2C123.752 129.672 122.184 130.952 120.52 132.04C118.856 133.064 117.256 133.576 115.72 133.576Z" fill="url(#paint3_linear_1_4)"/>
<defs>
<linearGradient id="paint0_linear_1_4" x1="423.775" y1="27" x2="424.225" y2="104" gradientUnits="userSpaceOnUse">
<stop stop-color="#B8C0C2"/>
<stop offset="1" stop-color="#A0A8AB"/>
</linearGradient>
<linearGradient id="paint1_linear_1_4" x1="427.425" y1="129" x2="426.583" y2="174" gradientUnits="userSpaceOnUse">
<stop stop-color="#B8C0C2"/>
<stop offset="1" stop-color="#A0A8AB"/>
</linearGradient>
<linearGradient id="paint2_linear_1_4" x1="100" y1="0" x2="100" y2="200" gradientUnits="userSpaceOnUse">
<stop stop-color="#B8C0C2"/>
<stop offset="1" stop-color="#A0A8AB"/>
</linearGradient>
<linearGradient id="paint3_linear_1_4" x1="94.5" y1="42" x2="94.5" y2="162" gradientUnits="userSpaceOnUse">
<stop stop-color="#B8C0C2"/>
<stop offset="1" stop-color="#A0A8AB"/>
</linearGradient>
</defs>
</svg>
