<svg viewBox="0 0 50.032 50.12" height="50.12" width="50.032" xmlns="http://www.w3.org/2000/svg">
  <path transform="matrix(0.629, 0.777, -0.777, 0.629, 28.944, -13.057)" d="M45.1,17.678a1.5,1.5,0,0,1-.608,1.217l-7.667,6.328a.894.894,0,0,1-.73.243,1.107,1.107,0,0,1-.974-.487,1.176,1.176,0,0,1,.122-1.7l5.6-4.746c-14.482-.974-27.5,10.1-29.207,25.069a1.294,1.294,0,0,1-1.217,1.1H10.3a1.426,1.426,0,0,1-1.1-1.339A30.451,30.451,0,0,1,40.6,16.1l-5.111-4.624a1.3,1.3,0,0,1-.122-1.7,1.3,1.3,0,0,1,1.7-.122l7.423,6.572a2.528,2.528,0,0,1,.608,1.46Z" id="share"></path>
</svg>
